<svg width="160" height="48" viewBox="0 0 160 48" fill="#000000" xmlns="http://www.w3.org/2000/svg">
<g clip-path="url(#clip0_5431_5120)">
<path d="M26.8557 9H6.40037C4.51423 9 3 10.4831 3 12.3306V35.6967C3 37.5441 4.51423 39.0272 6.40037 39.0272H30.2561C32.1422 39.0272 33.6564 37.5441 33.6564 35.6967V15.6612L26.8557 9ZM13.2277 12.3306H23.4553V17.3525H13.2277V12.3306ZM30.2826 35.7227H6.40037V12.3306H9.80073V20.683H26.8557V13.7357L30.2826 17.0662V35.7227ZM9.8273 24.0396H26.8823V27.3702H9.8273V24.0396ZM9.8273 29.0355H26.8823V32.3661H9.8273V29.0355Z" fill="black"/>
<path d="M66.8897 12.5387V36.269C66.8897 36.6333 66.7038 36.7894 66.3584 36.7894H63.4362C63.0643 36.7894 62.9049 36.6073 62.9049 36.269V12.5387C62.9049 12.1744 63.0909 12.0183 63.4362 12.0183H66.3584C66.7038 11.9922 66.8897 12.1744 66.8897 12.5387V12.5387ZM50.1801 11.0815H47.9752C44.1763 11.0815 42.1042 13.0591 42.1042 17.0402V19.0957H40.1915C39.8196 19.0957 39.6602 19.2779 39.6602 19.6161V22.0881C39.6602 22.4523 39.8462 22.6085 40.1915 22.6085H42.1042V36.243C42.1042 36.6073 42.2902 36.7634 42.6355 36.7634H45.5577C45.9296 36.7634 46.089 36.5813 46.089 36.243V22.6345H49.7816C50.1535 22.6345 50.3129 22.4523 50.3129 22.1141V19.6422C50.3129 19.2779 50.127 19.1218 49.7816 19.1218H46.089V17.0402C46.089 15.4789 46.7797 14.7764 47.922 14.7764H50.127C50.4989 14.7764 50.6583 14.5943 50.6583 14.256V11.6019C50.738 11.2637 50.552 11.0815 50.1801 11.0815V11.0815ZM57.645 19.0957H54.7228C54.3509 19.0957 54.1915 19.2779 54.1915 19.6161V36.269C54.1915 36.6333 54.3774 36.7894 54.7228 36.7894H57.645C58.0169 36.7894 58.1763 36.6073 58.1763 36.269V19.6161C58.1763 19.2519 57.9903 19.0957 57.645 19.0957ZM57.645 11.9922H54.7228C54.3509 11.9922 54.1915 12.1744 54.1915 12.5127V15.3228C54.1915 15.6871 54.3774 15.8432 54.7228 15.8432H57.645C58.0169 15.8432 58.1763 15.6611 58.1763 15.3228V12.5387C58.1763 12.1744 57.9903 11.9922 57.645 11.9922ZM121.721 36.4772C121.747 36.6073 121.8 36.7894 121.614 36.7894H118.294C117.895 36.7894 117.63 36.4252 117.63 35.9308V34.7338C116.806 35.9828 115.611 36.9716 113.751 36.9716H112.635C109.261 36.9716 106.817 34.994 106.817 31.4553C106.817 27.9166 108.81 26.3293 112.556 26.3293H117.63V24.8722C117.63 22.9988 116.939 22.5044 115.053 22.5044H114.07C112.237 22.5044 110.855 22.9727 110.085 23.285C109.501 23.4931 109.102 23.4931 108.89 22.9988L108.119 21.2554C107.986 20.8911 107.933 20.6049 108.305 20.3968C109.819 19.486 112.077 18.9396 114.043 18.9396H115.026C119.516 18.9396 121.614 20.8911 121.614 25.0283V35.9308C121.641 36.1129 121.667 36.3471 121.721 36.4772V36.4772ZM117.63 29.3997H112.635C111.546 29.3997 110.802 29.8681 110.802 31.4293C110.802 32.9124 111.573 33.4589 112.635 33.4589H114.548C116.514 33.4589 117.178 32.6783 117.63 31.7675V29.3997ZM132.108 26.0691C129.637 25.7829 129.371 25.0804 129.371 24.0396C129.371 23.0508 130.142 22.4784 131.497 22.4784H132.692C134.18 22.4784 134.605 23.1289 134.924 23.9355C135.11 24.4299 135.428 24.586 135.853 24.586H138.457C138.855 24.586 138.962 24.3778 138.962 24.0135C138.962 20.8651 136.385 18.9917 132.745 18.9917H131.47C127.751 18.9917 125.334 20.5269 125.334 24.1176C125.334 27.7604 127.06 29.1395 132.108 29.5298C134.924 29.79 135.296 30.1803 135.296 31.6895C135.296 32.8604 134.605 33.4589 133.064 33.4589H131.497C130.115 33.4589 129.69 32.9905 129.292 32.2099C129.185 31.9237 128.973 31.8196 128.415 31.8196H125.785C125.413 31.8196 125.201 32.0277 125.254 32.34C125.626 35.3583 127.751 36.9456 131.63 36.9456H132.905C136.996 36.9456 139.333 35.3583 139.333 31.6635C139.28 27.5783 136.943 26.5375 132.108 26.0691V26.0691ZM85.0339 25.3926V28.437C85.0339 29.1135 84.6619 29.5038 83.9447 29.5038H74.8062V31.065C74.8062 32.7043 75.736 33.4328 77.1439 33.4328H78.9238C80.9428 33.4328 81.421 33.0425 82.1914 32.1839C82.4039 31.9237 82.6164 31.9237 82.9883 32.1839L84.476 33.1466C84.8479 33.4068 84.8745 33.641 84.6619 33.9272C83.3602 35.4884 82.1648 36.9716 78.9504 36.9716H77.1705C73.1857 36.9716 70.6886 34.0573 70.6886 30.3104V25.3926C70.6886 21.5677 73.1857 18.9396 77.1705 18.9396H78.9504C82.3242 18.9396 85.0339 21.3855 85.0339 25.3926ZM81.0225 24.8722C81.0225 23.1809 80.199 22.5044 78.9238 22.5044H77.1439C75.736 22.5044 74.8062 23.1809 74.8062 24.9243V26.4594H81.0225V24.8722V24.8722ZM146.48 29.5038V31.065C146.48 32.7043 147.409 33.4328 148.817 33.4328H150.597C152.616 33.4328 153.094 33.0425 153.865 32.1839C154.077 31.9237 154.29 31.9237 154.662 32.1839L156.149 33.1466C156.521 33.4068 156.548 33.641 156.335 33.9272C155.034 35.4884 153.838 36.9716 150.624 36.9716H148.844C144.859 36.9716 142.362 34.0573 142.362 30.3104V25.3926C142.362 21.5677 144.859 18.9396 148.844 18.9396H150.624C154.024 18.9396 156.734 21.3855 156.734 25.3926V28.437C156.734 29.1135 156.362 29.5038 155.645 29.5038H146.48ZM146.48 26.4074H152.696V24.8462C152.696 23.1549 151.872 22.4784 150.597 22.4784H148.844C147.436 22.4784 146.506 23.1549 146.506 24.8982V26.4074H146.48ZM103.736 25.3666V30.6487C103.736 34.3956 101.345 36.9976 97.3602 36.9976H96.457C94.6239 36.9976 93.4816 36.191 92.8441 35.0721V36.269C92.8441 36.6333 92.5784 36.7894 92.3393 36.7894H89.364C88.9921 36.7894 88.8327 36.6073 88.8327 36.269V12.5387C88.8327 12.1744 89.0187 12.0183 89.364 12.0183H92.3393C92.605 12.0183 92.8441 12.2004 92.8441 12.5387V20.709C93.5082 19.6942 94.6239 18.9396 96.457 18.9396H97.3602C101.345 18.9396 103.736 21.5677 103.736 25.3666V25.3666ZM99.7245 24.8722C99.7245 23.1809 98.7947 22.5044 97.3336 22.5044H95.2084C93.8004 22.5044 92.8706 23.1809 92.8706 24.8722V31.065C92.8706 32.7043 93.8004 33.4328 95.2084 33.4328H97.3336C98.7681 33.4328 99.7245 32.6783 99.7245 31.065V24.8722Z" fill="black"/>
</g>
<defs>
<clipPath id="clip0_5431_5120">
<rect width="154" height="30" fill="white" transform="translate(3 9)"/>
</clipPath>
</defs>
</svg>
